# Blender 4.2.0
# www.blender.org
mtllib salarellena2.mtl
o Cylinder
v 2.434935 0.504775 -7.849630
v 2.235914 6.504775 -6.849088
v 3.748086 0.504775 -7.451290
v 3.357695 6.504775 -6.508800
v 4.958294 0.504775 -6.804420
v 4.391532 6.504775 -5.956202
v 6.019050 0.504775 -5.933881
v 5.297699 6.504775 -5.212530
v 6.889590 0.504775 -4.873125
v 6.041371 6.504775 -4.306364
v 7.536459 0.504775 -3.662918
v 6.593969 6.504775 -3.272526
v 7.934799 0.504775 -2.349766
v 6.934258 6.504775 -2.150745
v 8.069303 0.504775 -0.984133
v 7.049159 6.504775 -0.984133
v 7.934799 0.504775 0.381499
v 6.934258 6.504775 0.182479
v 6.019050 0.504775 3.965614
v 5.297699 6.504775 3.244264
v 4.958294 0.504775 4.836154
v 4.391532 6.504775 3.987936
v 3.748086 0.504775 5.483023
v 3.357695 6.504775 4.540534
v 2.434935 0.504775 5.881363
v 2.235914 6.504775 4.880822
v 1.069302 0.504775 6.015867
v 1.069302 6.504775 4.995723
v -0.296330 0.504775 5.881363
v -0.097310 6.504775 4.880822
v -1.609482 0.504775 5.483023
v -1.219090 6.504775 4.540534
v -2.819689 0.504775 4.836154
v -2.252928 6.504775 3.987936
v -3.880445 0.504775 3.965614
v -3.159094 6.504775 3.244264
v -5.796194 0.504775 0.381499
v -4.795652 6.504775 0.182479
v -5.930697 0.504775 -0.984133
v -4.910554 6.504775 -0.984133
v -5.796194 0.504775 -2.349766
v -4.795652 6.504775 -2.150745
v -5.397854 0.504775 -3.662918
v -4.455364 6.504775 -3.272526
v -4.751135 0.504346 -4.873275
v -3.902766 6.504775 -4.306364
v -3.955629 0.506383 -5.950263
v -3.159094 6.504775 -5.212530
v -2.819689 0.504775 -6.804420
v -2.252928 6.504775 -5.956202
v -1.609482 0.504775 -7.451290
v -1.219090 6.504775 -6.508800
v -0.296330 0.504775 -7.849630
v -0.097310 6.504775 -6.849088
v 2.434935 6.504775 -7.849630
v 3.748086 6.504775 -7.451290
v 4.958294 6.504775 -6.804420
v 6.019050 6.504775 -5.933881
v 6.889590 6.504775 -4.873125
v 7.536459 6.504775 -3.662918
v 7.934799 6.504775 -2.349766
v 8.069303 6.504775 -0.984133
v 7.934799 6.504775 0.381499
v 6.019050 6.504775 3.965614
v 4.958294 6.504775 4.836154
v 3.748086 6.504775 5.483023
v 2.434935 6.504775 5.881363
v 1.069302 6.504775 6.015867
v -0.296330 6.504775 5.881363
v -1.609482 6.504775 5.483023
v -2.819689 6.504775 4.836154
v -3.880445 6.504775 3.965614
v -5.796194 6.504775 0.381499
v -5.930697 6.504775 -0.984133
v -5.796194 6.504775 -2.349766
v -5.397854 6.504775 -3.662918
v -4.750985 6.504775 -4.873125
v -3.880445 6.504775 -5.933881
v -2.819689 6.504775 -6.804420
v -1.609482 6.504775 -7.451290
v -0.296330 6.504775 -7.849630
v 2.241138 0.504775 -6.875348
v 3.367941 0.504775 -6.533536
v 4.406407 0.504775 -5.978464
v 5.316631 0.504775 -5.231462
v 6.063633 0.504775 -4.321239
v 6.618705 0.504775 -3.282772
v 6.960517 0.504775 -2.155969
v 7.075933 0.504775 -0.984133
v 6.960517 0.504775 0.187702
v 5.316631 0.504775 3.263196
v 4.406407 0.504775 4.010198
v 3.367941 0.504775 4.565269
v 2.241138 0.504775 4.907081
v 1.069302 0.504775 5.022497
v -0.102533 0.504775 4.907081
v -1.229336 0.504775 4.565269
v -2.267803 0.504775 4.010198
v -3.178026 0.504775 3.263196
v -4.821912 0.504775 0.187702
v -4.937328 0.504775 -0.984133
v -4.821912 0.504775 -2.155969
v -4.480100 0.504775 -3.282772
v -3.925028 0.504775 -4.321239
v -3.182765 0.491247 -5.236201
v -2.267803 0.504775 -5.978464
v -1.229336 0.504775 -6.533536
v -0.102533 0.504775 -6.875348
vn 0.2903 -0.0000 -0.9569
vn 0.3827 -0.0000 -0.9239
vn 0.5556 -0.0000 -0.8315
vn 0.7071 -0.0000 -0.7071
vn 0.8315 -0.0000 -0.5556
vn 0.9239 -0.0000 -0.3827
vn 0.9808 -0.0000 -0.1951
vn 1.0000 -0.0000 -0.0000
vn 0.9952 -0.0000 0.0980
vn 0.6344 -0.0000 0.7730
vn 0.5556 -0.0000 0.8315
vn 0.3827 -0.0000 0.9239
vn 0.1951 -0.0000 0.9808
vn -0.0000 -0.0000 1.0000
vn -0.1951 -0.0000 0.9808
vn -0.3827 -0.0000 0.9239
vn -0.5556 -0.0000 0.8315
vn -0.6344 -0.0000 0.7730
vn -0.9952 -0.0000 0.0980
vn -1.0000 -0.0000 -0.0000
vn -0.9808 -0.0000 -0.1951
vn -0.9239 -0.0000 -0.3826
vn -0.9239 -0.0000 -0.3827
vn -0.8384 0.0029 -0.5450
vn -0.8385 0.0029 -0.5449
vn -0.7082 0.0054 -0.7060
vn -0.7085 0.0054 -0.7056
vn -0.5465 0.0025 -0.8374
vn -0.5465 0.0025 -0.8375
vn -0.3827 -0.0000 -0.9239
vn -0.2903 -0.0000 -0.9569
vn -0.0000 1.0000 -0.0000
vn -0.0000 -1.0000 -0.0000
vn 0.0001 -1.0000 0.0001
vn -0.0043 -1.0000 -0.0003
vn -0.0042 -1.0000 -0.0003
vn -0.0049 -1.0000 -0.0048
vn -0.0047 -1.0000 -0.0049
vn -0.0006 -1.0000 -0.0045
vn -0.0005 -1.0000 -0.0044
vn 0.9239 -0.0045 0.3827
vn 0.9808 -0.0045 0.1951
vn 1.0000 -0.0045 -0.0000
vn 0.6344 -0.0044 -0.7730
vn 0.5556 -0.0045 -0.8315
vn 0.8322 -0.0047 0.5544
vn 0.8318 -0.0047 0.5551
vn 0.3827 -0.0045 -0.9239
vn 0.1951 -0.0045 -0.9808
vn -0.0000 -0.0045 -1.0000
vn -0.1951 -0.0045 -0.9808
vn -0.3827 -0.0045 -0.9239
vn -0.5556 -0.0045 -0.8315
vn -0.6344 -0.0044 -0.7730
vn -0.7071 -0.0045 0.7071
vn -0.5556 -0.0045 0.8315
vn -0.3827 -0.0045 0.9239
vn -0.2903 -0.0044 0.9569
vn 0.2903 -0.0044 0.9569
vn 0.3827 -0.0045 0.9239
vn 0.5544 -0.0047 0.8322
vn 0.5551 -0.0047 0.8318
vn 0.7071 -0.0050 0.7071
vn 0.9952 -0.0044 -0.0980
vn -0.8315 -0.0045 0.5556
vn -0.9239 -0.0045 0.3827
vn -0.9808 -0.0045 0.1951
vn -1.0000 -0.0045 -0.0000
vn -0.9952 -0.0044 -0.0980
vn -0.7071 -0.0000 -0.7071
vt 0.968750 0.500000
vt 0.968750 1.000000
vt 0.937500 1.000000
vt 0.937500 0.500000
vt 0.906250 1.000000
vt 0.906250 0.500000
vt 0.875000 1.000000
vt 0.875000 0.500000
vt 0.843750 1.000000
vt 0.843750 0.500000
vt 0.812500 1.000000
vt 0.812500 0.500000
vt 0.781250 1.000000
vt 0.781250 0.500000
vt 0.750000 1.000000
vt 0.750000 0.500000
vt 0.718750 1.000000
vt 0.718750 0.500000
vt 0.625000 0.500000
vt 0.625000 1.000000
vt 0.593750 1.000000
vt 0.593750 0.500000
vt 0.562500 1.000000
vt 0.562500 0.500000
vt 0.531250 1.000000
vt 0.531250 0.500000
vt 0.500000 1.000000
vt 0.500000 0.500000
vt 0.468750 1.000000
vt 0.468750 0.500000
vt 0.437500 1.000000
vt 0.437500 0.500000
vt 0.406250 1.000000
vt 0.406250 0.500000
vt 0.375000 1.000000
vt 0.375000 0.500000
vt 0.281250 0.500000
vt 0.281250 1.000000
vt 0.250000 1.000000
vt 0.250000 0.500000
vt 0.218750 1.000000
vt 0.218750 0.500000
vt 0.187500 1.000000
vt 0.187500 0.500000
vt 0.156250 1.000000
vt 0.156250 0.500000
vt 0.125000 1.000000
vt 0.125000 0.500000
vt 0.093750 1.000000
vt 0.093750 0.500000
vt 0.062500 1.000000
vt 0.062500 0.500000
vt 0.031250 1.000000
vt 0.031250 0.500000
vt 0.289998 0.451084
vt 0.328459 0.439417
vt 0.341844 0.471731
vt 0.296822 0.485388
vt 0.363905 0.420471
vt 0.383337 0.449553
vt 0.394974 0.394974
vt 0.419706 0.419706
vt 0.420471 0.363905
vt 0.449553 0.383337
vt 0.439417 0.328459
vt 0.471731 0.341844
vt 0.451084 0.289998
vt 0.485388 0.296822
vt 0.455024 0.250000
vt 0.490000 0.250000
vt 0.451084 0.210002
vt 0.485388 0.203178
vt 0.394974 0.105026
vt 0.363905 0.079529
vt 0.383337 0.050447
vt 0.419706 0.080294
vt 0.328459 0.060583
vt 0.341844 0.028269
vt 0.289998 0.048916
vt 0.296822 0.014612
vt 0.250000 0.044976
vt 0.250000 0.010000
vt 0.210002 0.048916
vt 0.203178 0.014612
vt 0.171541 0.060583
vt 0.158156 0.028269
vt 0.136095 0.079529
vt 0.116663 0.050447
vt 0.105026 0.105026
vt 0.080294 0.080294
vt 0.048916 0.210002
vt 0.044976 0.250000
vt 0.010000 0.250000
vt 0.014612 0.203178
vt 0.048916 0.289998
vt 0.014612 0.296822
vt 0.060583 0.328459
vt 0.028269 0.341844
vt 0.079529 0.363905
vt 0.050447 0.383337
vt 0.105026 0.394973
vt 0.080294 0.419706
vt 0.136095 0.420471
vt 0.116663 0.449553
vt 0.171541 0.439417
vt 0.158156 0.471731
vt 0.210002 0.451084
vt 0.203178 0.485388
vt 0.796822 0.485388
vt 0.841844 0.471731
vt 0.828811 0.440265
vt 0.790177 0.451985
vt 0.883337 0.449553
vt 0.864415 0.421234
vt 0.919706 0.419706
vt 0.895623 0.395623
vt 0.949553 0.383337
vt 0.921234 0.364415
vt 0.971731 0.341844
vt 0.940265 0.328810
vt 0.985388 0.296822
vt 0.951985 0.290177
vt 0.990000 0.250000
vt 0.955942 0.250000
vt 0.985388 0.203178
vt 0.951985 0.209823
vt 0.919706 0.080294
vt 0.883337 0.050447
vt 0.864415 0.078766
vt 0.895623 0.104377
vt 0.841844 0.028269
vt 0.828810 0.059735
vt 0.796822 0.014612
vt 0.790177 0.048016
vt 0.750000 0.010000
vt 0.750000 0.044058
vt 0.703178 0.014612
vt 0.709823 0.048016
vt 0.658156 0.028269
vt 0.671190 0.059735
vt 0.616663 0.050447
vt 0.635585 0.078766
vt 0.580294 0.080294
vt 0.604377 0.104377
vt 0.514612 0.203178
vt 0.510000 0.250000
vt 0.544058 0.250000
vt 0.548015 0.209823
vt 0.514612 0.296822
vt 0.548015 0.290177
vt 0.528269 0.341844
vt 0.559735 0.328810
vt 0.550447 0.383337
vt 0.578766 0.364415
vt 0.580294 0.419706
vt 0.604377 0.395623
vt 0.616663 0.449553
vt 0.635585 0.421234
vt 0.658156 0.471731
vt 0.671190 0.440265
vt 0.703178 0.485388
vt 0.709823 0.451985
vt 0.000000 0.000000
s 1
usemtl Materiales
f 1/1/1 55/2/1 56/3/2 3/4/2
f 3/4/2 56/3/2 57/5/3 5/6/3
f 5/6/3 57/5/3 58/7/4 7/8/4
f 7/8/4 58/7/4 59/9/5 9/10/5
f 9/10/5 59/9/5 60/11/6 11/12/6
f 11/12/6 60/11/6 61/13/7 13/14/7
f 13/14/7 61/13/7 62/15/8 15/16/8
f 15/16/8 62/15/8 63/17/9 17/18/9
f 19/19/10 64/20/10 65/21/11 21/22/11
f 21/22/11 65/21/11 66/23/12 23/24/12
f 23/24/12 66/23/12 67/25/13 25/26/13
f 25/26/13 67/25/13 68/27/14 27/28/14
f 27/28/14 68/27/14 69/29/15 29/30/15
f 29/30/15 69/29/15 70/31/16 31/32/16
f 31/32/16 70/31/16 71/33/17 33/34/17
f 33/34/17 71/33/17 72/35/18 35/36/18
f 37/37/19 73/38/19 74/39/20 39/40/20
f 39/40/20 74/39/20 75/41/21 41/42/21
f 41/42/21 75/41/21 76/43/22 43/44/23
f 43/44/23 76/43/22 77/45/24 45/46/25
f 45/46/25 77/45/24 78/47/26 47/48/27
f 47/48/27 78/47/26 79/49/28 49/50/29
f 49/50/29 79/49/28 80/51/30 51/52/30
f 51/52/30 80/51/30 81/53/31 53/54/31
f 2/55/32 4/56/32 56/57/32 55/58/32
f 4/56/32 6/59/32 57/60/32 56/57/32
f 6/59/32 8/61/32 58/62/32 57/60/32
f 8/61/32 10/63/32 59/64/32 58/62/32
f 10/63/32 12/65/32 60/66/32 59/64/32
f 12/65/32 14/67/32 61/68/32 60/66/32
f 14/67/32 16/69/32 62/70/32 61/68/32
f 16/69/32 18/71/32 63/72/32 62/70/32
f 20/73/32 22/74/32 65/75/32 64/76/32
f 22/74/32 24/77/32 66/78/32 65/75/32
f 24/77/32 26/79/32 67/80/32 66/78/32
f 26/79/32 28/81/32 68/82/32 67/80/32
f 28/81/32 30/83/32 69/84/32 68/82/32
f 30/83/32 32/85/32 70/86/32 69/84/32
f 32/85/32 34/87/32 71/88/32 70/86/32
f 34/87/32 36/89/32 72/90/32 71/88/32
f 38/91/32 40/92/32 74/93/32 73/94/32
f 40/92/32 42/95/32 75/96/32 74/93/32
f 42/95/32 44/97/32 76/98/32 75/96/32
f 44/97/32 46/99/32 77/100/32 76/98/32
f 46/99/32 48/101/32 78/102/32 77/100/32
f 48/101/32 50/103/32 79/104/32 78/102/32
f 50/103/32 52/105/32 80/106/32 79/104/32
f 52/105/32 54/107/32 81/108/32 80/106/32
f 1/109/33 3/110/33 83/111/33 82/112/33
f 3/110/33 5/113/33 84/114/33 83/111/33
f 5/113/33 7/115/33 85/116/33 84/114/33
f 7/115/33 9/117/33 86/118/33 85/116/33
f 9/117/33 11/119/33 87/120/33 86/118/33
f 11/119/33 13/121/33 88/122/33 87/120/33
f 13/121/33 15/123/33 89/124/33 88/122/33
f 15/123/33 17/125/33 90/126/33 89/124/33
f 19/127/33 21/128/33 92/129/33 91/130/33
f 21/128/33 23/131/33 93/132/33 92/129/33
f 23/131/33 25/133/33 94/134/33 93/132/33
f 25/133/33 27/135/33 95/136/33 94/134/33
f 27/135/33 29/137/33 96/138/33 95/136/33
f 29/137/33 31/139/33 97/140/33 96/138/33
f 31/139/33 33/141/33 98/142/33 97/140/33
f 33/141/33 35/143/33 99/144/33 98/142/33
f 37/145/33 39/146/33 101/147/33 100/148/33
f 39/146/33 41/149/33 102/150/33 101/147/33
f 41/149/33 43/151/34 103/152/34 102/150/33
f 43/151/34 45/153/35 104/154/36 103/152/34
f 45/153/35 47/155/37 105/156/38 104/154/36
f 47/155/37 49/157/39 106/158/40 105/156/38
f 49/157/39 51/159/33 107/160/33 106/158/40
f 51/159/33 53/161/33 108/162/33 107/160/33
f 44/97/41 42/95/42 102/150/42 103/152/41
f 42/95/42 40/92/43 101/147/43 102/150/42
f 36/163/44 34/87/45 98/142/45 99/144/44
f 46/99/46 44/97/41 103/152/41 104/154/47
f 34/87/45 32/85/48 97/140/48 98/142/45
f 32/85/48 30/83/49 96/138/49 97/140/48
f 30/83/49 28/81/50 95/136/50 96/138/49
f 28/81/50 26/79/51 94/134/51 95/136/50
f 26/79/51 24/77/52 93/132/52 94/134/51
f 24/77/52 22/74/53 92/129/53 93/132/52
f 19/127/4 91/130/4 20/163/4 64/76/4
f 22/74/53 20/163/54 91/130/54 92/129/53
f 17/125/15 63/72/15 18/163/15 90/126/15
f 8/61/55 6/59/56 84/114/56 85/116/55
f 6/59/56 4/56/57 83/111/57 84/114/56
f 1/109/21 82/112/21 2/163/21 55/58/21
f 4/56/57 2/163/58 82/112/58 83/111/57
f 54/163/59 52/105/60 107/160/60 108/162/59
f 53/161/7 81/108/7 54/163/7 108/162/7
f 52/105/60 50/103/61 106/158/62 107/160/60
f 50/103/61 48/101/63 105/156/63 106/158/62
f 48/101/63 46/99/46 104/154/47 105/156/63
f 40/92/43 38/163/64 100/148/64 101/147/43
f 37/145/13 100/148/13 38/163/13 73/94/13
f 10/63/65 8/61/55 85/116/55 86/118/65
f 12/65/66 10/63/65 86/118/65 87/120/66
f 14/67/67 12/65/66 87/120/66 88/122/67
f 16/69/68 14/67/67 88/122/67 89/124/68
f 18/163/69 16/69/68 89/124/68 90/126/69
f 35/143/70 72/90/70 36/163/70 99/144/70
