{
	"asset":{
		"generator":"Khronos glTF Blender I/O v4.2.57",
		"version":"2.0"
	},
	"scene":0,
	"scenes":[
		{
			"name":"Scene",
			"nodes":[
				0
			]
		}
	],
	"nodes":[
		{
			"mesh":0,
			"name":"Cylinder",
			"scale":[
				55,
				15,
				55
			]
		}
	],
	"meshes":[
		{
			"name":"Cylinder",
			"primitives":[
				{
					"attributes":{
						"POSITION":0,
						"NORMAL":1,
						"TEXCOORD_0":2
					},
					"indices":3
				}
			]
		}
	],
	"accessors":[
		{
			"bufferView":0,
			"componentType":5126,
			"count":174,
			"max":[
				1,
				1,
				1
			],
			"min":[
				-1,
				-1.030818223953247,
				-0.9807852506637573
			],
			"type":"VEC3"
		},
		{
			"bufferView":1,
			"componentType":5126,
			"count":174,
			"type":"VEC3"
		},
		{
			"bufferView":2,
			"componentType":5126,
			"count":174,
			"type":"VEC2"
		},
		{
			"bufferView":3,
			"componentType":5123,
			"count":468,
			"type":"SCALAR"
		}
	],
	"bufferViews":[
		{
			"buffer":0,
			"byteLength":2088,
			"byteOffset":0,
			"target":34962
		},
		{
			"buffer":0,
			"byteLength":2088,
			"byteOffset":2088,
			"target":34962
		},
		{
			"buffer":0,
			"byteLength":1392,
			"byteOffset":4176,
			"target":34962
		},
		{
			"buffer":0,
			"byteLength":936,
			"byteOffset":5568,
			"target":34963
		}
	],
	"buffers":[
		{
			"byteLength":6504,
			"uri":"salafinal4.bin"
		}
	]
}
