# Blender 4.2.0
# www.blender.org
mtllib salafinalneg.mtl
o Cylinder
v 0.101007 -5.964366 -8.652701
v -0.098013 0.035634 -7.652160
v 1.414159 -5.964366 -8.254361
v 1.023767 0.035634 -7.311872
v 2.624367 -5.964366 -7.607492
v 2.057605 0.035634 -6.759274
v 3.685122 -5.964366 -6.736953
v 2.963772 0.035634 -6.015602
v 4.555662 -5.964366 -5.676197
v 3.707444 0.035634 -5.109435
v 5.202531 -5.964366 -4.465989
v 4.260042 0.035634 -4.075597
v 5.600872 -5.964366 -3.152837
v 4.600330 0.035634 -2.953817
v 5.735375 -5.964366 -1.787205
v 4.715231 0.035634 -1.787205
v 5.600872 -5.964366 -0.421573
v 4.600330 0.035634 -0.620593
v 4.555662 -5.964366 2.101787
v 3.707444 0.035634 1.535025
v 3.685122 -5.964366 3.162543
v 2.963772 0.035634 2.441192
v 2.624367 -5.964366 4.033082
v 2.057605 0.035634 3.184864
v 1.414159 -5.964366 4.679952
v 1.023767 0.035634 3.737462
v 0.101007 -5.964366 5.078292
v -0.098013 0.035634 4.077750
v -1.264625 -5.964366 5.212795
v -1.264625 0.035634 4.192652
v -2.630257 -5.964366 5.078292
v -2.431237 0.035634 4.077750
v -3.943409 -5.964366 4.679952
v -3.553017 0.035634 3.737462
v -5.153617 -5.964366 4.033082
v -4.586855 0.035634 3.184864
v -6.214373 -5.964366 3.162543
v -5.493022 0.035634 2.441192
v -7.084912 -5.964366 2.101787
v -6.236694 0.035634 1.535025
v -8.130121 -5.964366 -0.421573
v -7.129580 0.035634 -0.620593
v -8.264625 -5.964366 -1.787205
v -7.244482 0.035634 -1.787205
v -8.130121 -5.964366 -3.152837
v -7.129580 0.035634 -2.953817
v -7.731781 -5.964366 -4.465989
v -6.789292 0.035634 -4.075597
v -7.085063 -5.964795 -5.676347
v -6.236694 0.035634 -5.109435
v -6.246757 -6.056820 -6.769337
v -5.493022 0.035634 -6.015602
v -5.153617 -5.964366 -7.607492
v -4.586855 0.035634 -6.759274
v -3.943409 -5.964366 -8.254361
v -3.553017 0.035634 -7.311872
v -2.630257 -5.964366 -8.652701
v -2.431237 0.035634 -7.652160
v 0.101007 0.035634 -8.652701
v 1.414159 0.035634 -8.254361
v 2.624367 0.035634 -7.607492
v 3.685122 0.035634 -6.736953
v 4.555662 0.035634 -5.676197
v 5.202531 0.035634 -4.465989
v 5.600872 0.035634 -3.152837
v 5.735375 0.035634 -1.787205
v 5.600872 0.035634 -0.421573
v 4.555662 0.035634 2.101787
v 3.685122 0.035634 3.162543
v 2.624367 0.035634 4.033082
v 1.414159 0.035634 4.679952
v 0.101007 0.035634 5.078292
v -1.264625 0.035634 5.212795
v -2.630257 0.035634 5.078292
v -3.943409 0.035634 4.679952
v -5.153617 0.035634 4.033082
v -6.214373 0.035634 3.162543
v -7.084912 0.035634 2.101787
v -8.130121 0.035634 -0.421573
v -8.264625 0.035634 -1.787205
v -8.130121 0.035634 -3.152837
v -7.731781 0.035634 -4.465989
v -7.084912 0.035634 -5.676197
v -6.214373 0.035634 -6.736953
v -5.153617 0.035634 -7.607492
v -3.943409 0.035634 -8.254361
v -2.630257 0.035634 -8.652701
v -0.092790 -5.964366 -7.678419
v 1.034013 -5.964366 -7.336608
v 2.072480 -5.964366 -6.781536
v 2.982704 -5.964366 -6.034534
v 3.729706 -5.964366 -5.124310
v 4.284778 -5.964366 -4.085843
v 4.626589 -5.964366 -2.959040
v 4.742005 -5.964366 -1.787205
v 4.626589 -5.964366 -0.615370
v 3.729706 -5.964366 1.549900
v 2.982704 -5.964366 2.460124
v 2.072480 -5.964366 3.207126
v 1.034013 -5.964366 3.762198
v -0.092790 -5.964366 4.104010
v -1.264625 -5.964366 4.219425
v -2.436460 -5.964366 4.104010
v -3.563263 -5.964366 3.762198
v -4.601730 -5.964366 3.207126
v -5.511954 -5.964366 2.460124
v -6.258956 -5.964366 1.549900
v -7.155839 -5.964366 -0.615370
v -7.271255 -5.964366 -1.787205
v -7.155839 -5.964366 -2.959040
v -6.814028 -5.964366 -4.085843
v -6.258956 -5.964366 -5.124310
v -5.516693 -5.977894 -6.039272
v -4.601730 -5.964366 -6.781536
v -3.563263 -5.964366 -7.336608
v -2.436460 -5.964366 -7.678419
vn 0.2903 -0.0000 -0.9569
vn 0.3827 -0.0000 -0.9239
vn 0.5556 -0.0000 -0.8315
vn 0.7071 -0.0000 -0.7071
vn 0.8315 -0.0000 -0.5556
vn 0.9239 -0.0000 -0.3827
vn 0.9808 -0.0000 -0.1951
vn 1.0000 -0.0000 -0.0000
vn 0.9952 -0.0000 0.0980
vn 0.7730 -0.0000 0.6344
vn 0.7071 -0.0000 0.7071
vn 0.5556 -0.0000 0.8315
vn 0.3827 -0.0000 0.9239
vn 0.1951 -0.0000 0.9808
vn -0.0000 -0.0000 1.0000
vn -0.1951 -0.0000 0.9808
vn -0.3827 -0.0000 0.9239
vn -0.5556 -0.0000 0.8315
vn -0.7071 -0.0000 0.7071
vn -0.7730 -0.0000 0.6344
vn -0.9952 -0.0000 0.0980
vn -1.0000 -0.0000 -0.0000
vn -0.9808 -0.0000 -0.1951
vn -0.9239 -0.0000 -0.3826
vn -0.9239 -0.0000 -0.3827
vn -0.8360 0.0019 -0.5487
vn -0.8337 0.0020 -0.5523
vn -0.7071 0.0038 -0.7071
vn -0.5487 0.0019 -0.8360
vn -0.5523 0.0020 -0.8337
vn -0.3827 -0.0000 -0.9239
vn -0.2903 -0.0000 -0.9569
vn -0.0000 1.0000 -0.0000
vn -0.0000 -1.0000 -0.0000
vn 0.0001 -1.0000 0.0001
vn 0.0024 -0.9996 0.0284
vn 0.0024 -0.9996 0.0281
vn 0.0304 -0.9991 0.0303
vn 0.0283 -0.9996 0.0022
vn 0.0279 -0.9996 0.0022
vt 0.968750 0.500000
vt 0.968750 1.000000
vt 0.937500 1.000000
vt 0.937500 0.500000
vt 0.906250 1.000000
vt 0.906250 0.500000
vt 0.875000 1.000000
vt 0.875000 0.500000
vt 0.843750 1.000000
vt 0.843750 0.500000
vt 0.812500 1.000000
vt 0.812500 0.500000
vt 0.781250 1.000000
vt 0.781250 0.500000
vt 0.750000 1.000000
vt 0.750000 0.500000
vt 0.718750 1.000000
vt 0.718750 0.500000
vt 0.656250 0.500000
vt 0.656250 1.000000
vt 0.625000 1.000000
vt 0.625000 0.500000
vt 0.593750 1.000000
vt 0.593750 0.500000
vt 0.562500 1.000000
vt 0.562500 0.500000
vt 0.531250 1.000000
vt 0.531250 0.500000
vt 0.500000 1.000000
vt 0.500000 0.500000
vt 0.468750 1.000000
vt 0.468750 0.500000
vt 0.437500 1.000000
vt 0.437500 0.500000
vt 0.406250 1.000000
vt 0.406250 0.500000
vt 0.375000 1.000000
vt 0.375000 0.500000
vt 0.343750 1.000000
vt 0.343750 0.500000
vt 0.281250 0.500000
vt 0.281250 1.000000
vt 0.250000 1.000000
vt 0.250000 0.500000
vt 0.218750 1.000000
vt 0.218750 0.500000
vt 0.187500 1.000000
vt 0.187500 0.500000
vt 0.156250 1.000000
vt 0.156250 0.500000
vt 0.125000 1.000000
vt 0.125000 0.500000
vt 0.093750 1.000000
vt 0.093750 0.500000
vt 0.062500 1.000000
vt 0.062500 0.500000
vt 0.031250 1.000000
vt 0.031250 0.500000
vt 0.289998 0.451084
vt 0.328459 0.439417
vt 0.341844 0.471731
vt 0.296822 0.485388
vt 0.363905 0.420471
vt 0.383337 0.449553
vt 0.394974 0.394974
vt 0.419706 0.419706
vt 0.420471 0.363905
vt 0.449553 0.383337
vt 0.439417 0.328459
vt 0.471731 0.341844
vt 0.451084 0.289998
vt 0.485388 0.296822
vt 0.455024 0.250000
vt 0.490000 0.250000
vt 0.451084 0.210002
vt 0.485388 0.203178
vt 0.420471 0.136095
vt 0.394974 0.105026
vt 0.419706 0.080294
vt 0.449553 0.116663
vt 0.363905 0.079529
vt 0.383337 0.050447
vt 0.328459 0.060583
vt 0.341844 0.028269
vt 0.289998 0.048916
vt 0.296822 0.014612
vt 0.250000 0.044976
vt 0.250000 0.010000
vt 0.210002 0.048916
vt 0.203178 0.014612
vt 0.171541 0.060583
vt 0.158156 0.028269
vt 0.136095 0.079529
vt 0.116663 0.050447
vt 0.105026 0.105026
vt 0.080294 0.080294
vt 0.079529 0.136095
vt 0.050447 0.116663
vt 0.048916 0.210002
vt 0.044976 0.250000
vt 0.010000 0.250000
vt 0.014612 0.203178
vt 0.048916 0.289998
vt 0.014612 0.296822
vt 0.060583 0.328459
vt 0.028269 0.341844
vt 0.079529 0.363905
vt 0.050447 0.383337
vt 0.105026 0.394973
vt 0.080294 0.419706
vt 0.136095 0.420471
vt 0.116663 0.449553
vt 0.171541 0.439417
vt 0.158156 0.471731
vt 0.210002 0.451084
vt 0.203178 0.485388
vt 0.796822 0.485388
vt 0.841844 0.471731
vt 0.828811 0.440265
vt 0.790177 0.451985
vt 0.883337 0.449553
vt 0.864415 0.421234
vt 0.919706 0.419706
vt 0.895623 0.395623
vt 0.949553 0.383337
vt 0.921234 0.364415
vt 0.971731 0.341844
vt 0.940265 0.328810
vt 0.985388 0.296822
vt 0.951985 0.290177
vt 0.990000 0.250000
vt 0.955942 0.250000
vt 0.985388 0.203178
vt 0.951985 0.209823
vt 0.949553 0.116663
vt 0.919706 0.080294
vt 0.895623 0.104377
vt 0.921234 0.135585
vt 0.883337 0.050447
vt 0.864415 0.078766
vt 0.841844 0.028269
vt 0.828810 0.059735
vt 0.796822 0.014612
vt 0.790177 0.048016
vt 0.750000 0.010000
vt 0.750000 0.044058
vt 0.703178 0.014612
vt 0.709823 0.048016
vt 0.658156 0.028269
vt 0.671190 0.059735
vt 0.616663 0.050447
vt 0.635585 0.078766
vt 0.580294 0.080294
vt 0.604377 0.104377
vt 0.550447 0.116663
vt 0.578766 0.135585
vt 0.514612 0.203178
vt 0.510000 0.250000
vt 0.544058 0.250000
vt 0.548015 0.209823
vt 0.514612 0.296822
vt 0.548015 0.290177
vt 0.528269 0.341844
vt 0.559735 0.328810
vt 0.550447 0.383337
vt 0.578766 0.364415
vt 0.580294 0.419706
vt 0.604377 0.395623
vt 0.616663 0.449553
vt 0.635585 0.421234
vt 0.658156 0.471731
vt 0.671190 0.440265
vt 0.703178 0.485388
vt 0.709823 0.451985
s 1
usemtl Materiales
f 1/1/1 59/2/1 60/3/2 3/4/2
f 3/4/2 60/3/2 61/5/3 5/6/3
f 5/6/3 61/5/3 62/7/4 7/8/4
f 7/8/4 62/7/4 63/9/5 9/10/5
f 9/10/5 63/9/5 64/11/6 11/12/6
f 11/12/6 64/11/6 65/13/7 13/14/7
f 13/14/7 65/13/7 66/15/8 15/16/8
f 15/16/8 66/15/8 67/17/9 17/18/9
f 19/19/10 68/20/10 69/21/11 21/22/11
f 21/22/11 69/21/11 70/23/12 23/24/12
f 23/24/12 70/23/12 71/25/13 25/26/13
f 25/26/13 71/25/13 72/27/14 27/28/14
f 27/28/14 72/27/14 73/29/15 29/30/15
f 29/30/15 73/29/15 74/31/16 31/32/16
f 31/32/16 74/31/16 75/33/17 33/34/17
f 33/34/17 75/33/17 76/35/18 35/36/18
f 35/36/18 76/35/18 77/37/19 37/38/19
f 37/38/19 77/37/19 78/39/20 39/40/20
f 41/41/21 79/42/21 80/43/22 43/44/22
f 43/44/22 80/43/22 81/45/23 45/46/23
f 45/46/23 81/45/23 82/47/24 47/48/25
f 47/48/25 82/47/24 83/49/26 49/50/27
f 49/50/27 83/49/26 84/51/28 51/52/28
f 51/52/28 84/51/28 85/53/29 53/54/30
f 53/54/30 85/53/29 86/55/31 55/56/31
f 55/56/31 86/55/31 87/57/32 57/58/32
f 2/59/33 4/60/33 60/61/33 59/62/33
f 4/60/33 6/63/33 61/64/33 60/61/33
f 6/63/33 8/65/33 62/66/33 61/64/33
f 8/65/33 10/67/33 63/68/33 62/66/33
f 10/67/33 12/69/33 64/70/33 63/68/33
f 12/69/33 14/71/33 65/72/33 64/70/33
f 14/71/33 16/73/33 66/74/33 65/72/33
f 16/73/33 18/75/33 67/76/33 66/74/33
f 20/77/33 22/78/33 69/79/33 68/80/33
f 22/78/33 24/81/33 70/82/33 69/79/33
f 24/81/33 26/83/33 71/84/33 70/82/33
f 26/83/33 28/85/33 72/86/33 71/84/33
f 28/85/33 30/87/33 73/88/33 72/86/33
f 30/87/33 32/89/33 74/90/33 73/88/33
f 32/89/33 34/91/33 75/92/33 74/90/33
f 34/91/33 36/93/33 76/94/33 75/92/33
f 36/93/33 38/95/33 77/96/33 76/94/33
f 38/95/33 40/97/33 78/98/33 77/96/33
f 42/99/33 44/100/33 80/101/33 79/102/33
f 44/100/33 46/103/33 81/104/33 80/101/33
f 46/103/33 48/105/33 82/106/33 81/104/33
f 48/105/33 50/107/33 83/108/33 82/106/33
f 50/107/33 52/109/33 84/110/33 83/108/33
f 52/109/33 54/111/33 85/112/33 84/110/33
f 54/111/33 56/113/33 86/114/33 85/112/33
f 56/113/33 58/115/33 87/116/33 86/114/33
f 1/117/34 3/118/34 89/119/34 88/120/34
f 3/118/34 5/121/34 90/122/34 89/119/34
f 5/121/34 7/123/34 91/124/34 90/122/34
f 7/123/34 9/125/34 92/126/34 91/124/34
f 9/125/34 11/127/34 93/128/34 92/126/34
f 11/127/34 13/129/34 94/130/34 93/128/34
f 13/129/34 15/131/34 95/132/34 94/130/34
f 15/131/34 17/133/34 96/134/34 95/132/34
f 19/135/34 21/136/34 98/137/34 97/138/34
f 21/136/34 23/139/34 99/140/34 98/137/34
f 23/139/34 25/141/34 100/142/34 99/140/34
f 25/141/34 27/143/34 101/144/34 100/142/34
f 27/143/34 29/145/34 102/146/34 101/144/34
f 29/145/34 31/147/34 103/148/34 102/146/34
f 31/147/34 33/149/34 104/150/34 103/148/34
f 33/149/34 35/151/34 105/152/34 104/150/34
f 35/151/34 37/153/34 106/154/34 105/152/34
f 37/153/34 39/155/34 107/156/34 106/154/34
f 41/157/34 43/158/34 109/159/34 108/160/34
f 43/158/34 45/161/34 110/162/34 109/159/34
f 45/161/34 47/163/35 111/164/35 110/162/34
f 47/163/35 49/165/36 112/166/37 111/164/35
f 49/165/36 51/167/38 113/168/38 112/166/37
f 51/167/38 53/169/39 114/170/40 113/168/38
f 53/169/39 55/171/34 115/172/34 114/170/40
f 55/171/34 57/173/34 116/174/34 115/172/34
